# xmcd
#
# Track frame offsets: 
#        150
#        15822
#        24175
#        35692
#        50727
#        62667
#        69892
#        87582
#        112066
#        125724
#        137983
#
# Disc length: 1943 seconds
#
# Revision: 0
# Processed by: cddbd v1.5.2PL0 Copyright (c) Steve Scherf et al.
# Submitted via: ExactAudioCopy v0.99pb5
#
DISCID=9607950b
DTITLE=The Moeller Bros. - The Bullcreek Sessions
DYEAR=2011
DGENRE=Blues
TTITLE0=Cockroach Run
TTITLE1=My Baby's Been Cheatin' Again
TTITLE2=You Know I Love You
TTITLE3=Buckwheat Cares
TTITLE4=Rock Lil' Girl
TTITLE5=Flip Flop
TTITLE6=Got My Eyes On You
TTITLE7=Janie On My Mind
TTITLE8=Worried 'bout My Baby
TTITLE9=Walkin' With Frankie
TTITLE10=Talk - Turkery Kill
EXTD=
EXTT0=
EXTT1=
EXTT2=
EXTT3=
EXTT4=
EXTT5=
EXTT6=
EXTT7=
EXTT8=
EXTT9=
EXTT10=
PLAYORDER=
